<svg width="71" height="71" viewBox="0 0 71 71" fill="none" xmlns="http://www.w3.org/2000/svg">
<rect width="71" height="71" fill="white"/>
<g filter="url(#filter0_d_40000043_18296)">
<path d="M32.3728 21.4459C30.4051 18.7456 27.4536 16.8891 23.6822 16.5516C18.927 16.0453 15.9755 16.3828 14.4998 17.733C13.6799 18.4081 13.352 19.2519 13.352 20.4333C13.352 22.121 15.3196 21.9523 16.3035 21.9523C15.4836 25.3277 11.7123 41.5296 11.3843 49.7994C11.2203 52.4997 11.8762 54.1874 13.024 54.8625C13.352 55.0313 13.8439 55.2 14.1718 55.2C16.4675 55.2 19.255 52.8373 20.4028 51.9934C21.5506 50.9808 31.8809 42.3735 34.0125 32.9223C34.9963 28.1968 34.5044 24.315 32.3728 21.4459ZM28.9294 28.028C28.9294 35.2851 22.0425 42.2047 17.6153 46.424C18.1072 37.1416 20.7307 27.0154 21.7146 23.3024C21.7146 22.9649 19.7469 21.9523 18.4351 21.7835C20.7307 21.7835 22.2065 22.121 22.3705 22.121C23.8462 22.2898 28.6014 23.1337 28.9294 28.028Z" fill="#FB8C15"/>
<path d="M45.327 30.2214C44.1792 28.8712 42.7034 28.0273 41.0637 28.0273C37.4563 28.0273 35.8166 30.3901 33.521 37.816C32.2092 42.5416 32.3732 46.7609 34.0129 49.2924C34.8328 50.4738 36.1446 51.1489 37.4563 51.3177H37.6203C39.588 51.3177 41.7196 50.1363 43.3593 47.9423C45.163 45.5795 46.4748 42.3728 46.9667 38.6599C47.7866 34.1031 46.4748 31.5715 45.327 30.2214ZM37.9483 46.4233C37.7843 46.4233 37.6203 46.2546 37.4563 45.917C36.8004 44.7356 36.6365 41.3602 37.9483 37.9848C39.424 34.6094 40.5718 32.9217 41.5556 32.9217C41.7196 32.9217 42.0476 33.0905 42.2115 33.428C42.5395 33.9343 43.3593 35.7908 42.0476 40.01C40.7358 45.0732 38.9321 46.5921 37.9483 46.4233Z" fill="#FB8C15"/>
<path d="M58.7726 21.6147C58.1167 21.2772 56.1491 20.6021 55.4932 20.9397C54.8373 21.2772 52.0498 28.5343 51.0659 31.4034C50.574 33.0911 49.5902 35.9602 48.7703 38.4918C47.2946 42.8798 47.4585 43.0486 47.4585 43.2174C47.6225 43.7237 51.2299 44.23 51.3939 44.23C51.5579 44.23 51.7218 44.23 51.8858 44.0612C52.0498 43.8924 52.0498 43.8924 52.3777 42.3735C52.8696 41.0233 53.5255 38.4918 55.1652 33.935C57.1329 27.8592 58.4447 25.1589 59.1006 23.8087C59.4285 23.1337 59.5925 22.7961 59.5925 22.4586C59.7565 22.121 59.4285 21.9523 58.7726 21.6147Z" fill="#FB8C15"/>
<path d="M50.0812 45.0749C49.4253 44.9061 47.6216 44.5686 47.2937 44.9061C46.9657 45.2437 46.1459 47.944 46.6378 48.6191C46.9657 49.1254 47.9496 49.2942 48.7694 49.2942C49.0974 49.2942 49.4253 49.2942 49.5893 49.2942C50.0812 49.2942 50.5731 49.2942 50.7371 48.9566C51.065 48.6191 51.7209 46.5939 51.393 45.75C51.229 45.5812 50.901 45.2437 50.0812 45.0749Z" fill="#FB8C15"/>
</g>
<defs>
<filter id="filter0_d_40000043_18296" x="7.35938" y="16.3281" width="56.2754" height="46.8711" filterUnits="userSpaceOnUse" color-interpolation-filters="sRGB">
<feFlood flood-opacity="0" result="BackgroundImageFix"/>
<feColorMatrix in="SourceAlpha" type="matrix" values="0 0 0 0 0 0 0 0 0 0 0 0 0 0 0 0 0 0 127 0" result="hardAlpha"/>
<feOffset dy="4"/>
<feGaussianBlur stdDeviation="2"/>
<feComposite in2="hardAlpha" operator="out"/>
<feColorMatrix type="matrix" values="0 0 0 0 0 0 0 0 0 0 0 0 0 0 0 0 0 0 0.45 0"/>
<feBlend mode="normal" in2="BackgroundImageFix" result="effect1_dropShadow_40000043_18296"/>
<feBlend mode="normal" in="SourceGraphic" in2="effect1_dropShadow_40000043_18296" result="shape"/>
</filter>
</defs>
</svg>
