<svg width="375" height="315" viewBox="0 0 375 315" fill="none" xmlns="http://www.w3.org/2000/svg">
<rect x="260.461" y="97.1328" width="60" height="167" rx="30" transform="rotate(40.2782 260.461 97.1328)" fill="#3CA21D"/>
<rect x="59" y="135.926" width="60" height="167" rx="30" transform="rotate(-40.28 59 135.926)" fill="#3CA21D"/>
<rect x="153" y="94" width="60" height="167" rx="30" fill="#3CA21D"/>
<rect x="-30" y="178" width="435" height="309" rx="154.5" fill="#3CA21D"/>
<path d="M211.5 216C233.14 236.331 259.207 235.678 278 216" stroke="black" stroke-width="7" stroke-linecap="round"/>
<path d="M83 216C104.64 236.331 130.707 235.678 149.5 216" stroke="black" stroke-width="7" stroke-linecap="round"/>
<path d="M181.896 3.13454C182.184 2.19034 183.521 2.19034 183.809 3.13454L189.684 22.3872C189.812 22.8079 190.2 23.0954 190.64 23.0954H209.778C210.732 23.0954 211.144 24.3029 210.39 24.8863L194.801 36.9466C194.473 37.2009 194.336 37.6319 194.457 38.0294L200.385 57.4587C200.67 58.3912 199.588 59.1381 198.817 58.5415L183.465 46.6641C183.104 46.3853 182.601 46.3853 182.241 46.6641L166.888 58.5415C166.117 59.1381 165.035 58.3912 165.32 57.4587L171.248 38.0294C171.37 37.6319 171.233 37.2009 170.904 36.9466L155.315 24.8863C154.561 24.3029 154.973 23.0954 155.927 23.0954H175.065C175.505 23.0954 175.893 22.8079 176.021 22.3872L181.896 3.13454Z" fill="#F7B533"/>
<path d="M330.051 215.178C351.844 127.792 311.683 59.2643 232 37.9223" stroke="black" stroke-width="7" stroke-linecap="round"/>
</svg>
