<svg width="24" height="24" viewBox="0 0 24 24" fill="none" xmlns="http://www.w3.org/2000/svg">
<path d="M10.2227 3.9502C10.4713 3.95031 10.7098 4.04887 10.8857 4.22461C11.0618 4.40064 11.1611 4.63974 11.1611 4.88867C11.1611 5.13768 11.0618 5.37666 10.8857 5.55274C10.7098 5.72861 10.4714 5.82801 10.2227 5.82813H5.82813V18.1719H10.2227C10.4714 18.172 10.7098 18.2714 10.8857 18.4473C11.0618 18.6233 11.1611 18.8623 11.1611 19.1113C11.1611 19.3603 11.0618 19.5994 10.8857 19.7754C10.7098 19.9511 10.4713 20.0497 10.2227 20.0498H5.77734C5.29274 20.0497 4.82803 19.8573 4.48535 19.5146C4.14268 19.172 3.95031 18.7073 3.9502 18.2227V5.77734C3.95031 5.29274 4.14268 4.82803 4.48535 4.48535C4.82803 4.14268 5.29274 3.95031 5.77734 3.9502H10.2227Z" fill="#F98427" stroke="#F98427" stroke-width="0.1"/>
<path d="M15.5527 7.49463C15.6773 7.49571 15.8005 7.52165 15.915 7.5708C16.0294 7.61995 16.1332 7.69124 16.2197 7.78076L19.7754 11.3364C19.9507 11.5115 20.0492 11.7488 20.0498 11.9966V12.0024C20.0494 12.2474 19.953 12.4821 19.7813 12.6567V12.6577L16.2188 16.2202C16.0417 16.391 15.8046 16.485 15.5586 16.4829C15.3124 16.4808 15.0764 16.3826 14.9023 16.2085C14.7283 16.0344 14.6301 15.7984 14.6279 15.5522C14.6259 15.3062 14.7207 15.0691 14.8916 14.8921V14.8911L16.8438 12.939H8.44434C8.19541 12.9389 7.9563 12.8396 7.78027 12.6636C7.60436 12.4875 7.50586 12.2484 7.50586 11.9995C7.50594 11.7506 7.60427 11.5115 7.78027 11.3355C7.9563 11.1594 8.19542 11.0611 8.44434 11.061H16.8447L14.8916 9.10791C14.8023 9.02149 14.7307 8.91836 14.6816 8.8042C14.6325 8.68978 14.6066 8.56642 14.6055 8.4419C14.6044 8.31723 14.6286 8.19302 14.6758 8.07764C14.723 7.96231 14.7927 7.85716 14.8809 7.76904C14.969 7.68098 15.0742 7.61114 15.1895 7.56397C15.3047 7.51687 15.4282 7.49357 15.5527 7.49463Z" fill="#F98427" stroke="#F98427" stroke-width="0.1"/>
</svg>
