<svg width="157" height="70" viewBox="0 0 157 70" fill="none" xmlns="http://www.w3.org/2000/svg">
<g filter="url(#filter0_d_580_18851)">
<path d="M110.784 10.509C108.012 6.7057 103.855 4.09095 98.5436 3.61554C91.8462 2.90242 87.6891 3.37783 85.6106 5.27947C84.4559 6.23029 83.994 7.41882 83.994 9.08275C83.994 11.4598 86.7653 11.2221 88.151 11.2221C86.9963 15.9762 81.6845 38.7959 81.2226 50.4434C80.9917 54.2467 81.9155 56.6237 83.5321 57.5746C83.994 57.8123 84.6868 58.05 85.1487 58.05C88.382 58.05 92.3081 54.7221 93.9247 53.5336C95.5413 52.1073 110.091 39.9844 113.093 26.6729C114.479 20.0172 113.786 14.55 110.784 10.509ZM105.934 19.7795C105.934 30.0008 96.2342 39.7467 89.9986 45.6893C90.6914 32.6155 94.3866 18.3532 95.7723 13.1237C95.7723 12.6483 93.0009 11.2221 91.1533 10.9844C94.3866 10.9844 96.4651 11.4598 96.6961 11.4598C98.7746 11.6975 105.472 12.886 105.934 19.7795Z" fill="#FFB86B"/>
<path d="M129.028 22.8714C127.411 20.9698 125.333 19.7812 123.023 19.7812C117.942 19.7812 115.633 23.1091 112.4 33.5681C110.552 40.2239 110.783 46.1665 113.093 49.7321C114.247 51.396 116.095 52.3468 117.942 52.5845H118.173C120.945 52.5845 123.947 50.9206 126.256 47.8304C128.797 44.5026 130.644 39.9862 131.337 34.7567C132.492 28.3386 130.644 24.7731 129.028 22.8714ZM118.635 45.6911C118.404 45.6911 118.173 45.4534 117.942 44.978C117.019 43.314 116.788 38.5599 118.635 33.8058C120.714 29.0517 122.33 26.6747 123.716 26.6747C123.947 26.6747 124.409 26.9124 124.64 27.3878C125.102 28.1009 126.257 30.7157 124.409 36.6583C122.561 43.7894 120.021 45.9288 118.635 45.6911Z" fill="#FFB86B"/>
<path d="M147.966 10.7484C147.043 10.2729 144.271 9.32213 143.347 9.79754C142.424 10.2729 138.498 20.4943 137.112 24.5352C136.419 26.9123 135.033 30.9533 133.879 34.5189C131.8 40.6992 132.031 40.9369 132.031 41.1746C132.262 41.8877 137.343 42.6008 137.574 42.6008C137.805 42.6008 138.036 42.6008 138.267 42.3631C138.498 42.1254 138.498 42.1254 138.959 39.9861C139.652 38.0844 140.576 34.5189 142.886 28.1008C145.657 19.5434 147.505 15.7402 148.428 13.8385C148.89 12.8877 149.121 12.4123 149.121 11.9369C149.352 11.4615 148.89 11.2238 147.966 10.7484Z" fill="#FFB86B"/>
<path d="M135.726 43.7888C134.802 43.5511 132.262 43.0757 131.8 43.5511C131.338 44.0265 130.183 47.8298 130.876 48.7806C131.338 49.4937 132.724 49.7314 133.879 49.7314C134.34 49.7314 134.802 49.7314 135.033 49.7314C135.726 49.7314 136.419 49.7314 136.65 49.256C137.112 48.7806 138.036 45.9281 137.574 44.7396C137.343 44.5019 136.881 44.0265 135.726 43.7888Z" fill="#FFB86B"/>
</g>
<g clip-path="url(#clip0_580_18851)">
<g clip-path="url(#clip1_580_18851)">
<path d="M13.3287 49.8858C12.0087 49.8858 10.6587 49.6458 9.27869 49.1658C7.92869 48.6558 6.66869 47.9208 5.49869 46.9608C4.35869 45.9708 3.44369 44.7708 2.75369 43.3608C2.06369 41.9208 1.71869 40.2708 1.71869 38.4108C1.71869 36.5508 2.06369 34.9158 2.75369 33.5058C3.44369 32.0958 4.35869 30.9108 5.49869 29.9508C6.63869 28.9908 7.88369 28.2708 9.23369 27.7908C10.6137 27.2808 11.9487 27.0258 13.2387 27.0258C14.3487 27.0258 15.3387 27.1608 16.2087 27.4308C17.1087 27.6708 17.8587 27.9708 18.4587 28.3308C19.0887 28.6908 19.5387 29.0058 19.8087 29.2758C20.3187 29.6658 20.7687 30.0558 21.1587 30.4458C21.5487 30.8358 21.7287 31.3458 21.6987 31.9758C21.6687 32.3058 21.5637 32.6508 21.3837 33.0108C21.2037 33.3408 20.9787 33.6858 20.7087 34.0458C19.8087 35.3058 18.9087 35.8758 18.0087 35.7558C17.5587 35.6658 17.1387 35.5158 16.7487 35.3058C16.3887 35.0958 16.0287 34.8858 15.6687 34.6758C15.3387 34.4358 14.9787 34.2408 14.5887 34.0908C14.1987 33.9408 13.7487 33.8658 13.2387 33.8658C12.3687 33.8658 11.5887 34.0608 10.8987 34.4508C10.2087 34.8408 9.65369 35.3808 9.23369 36.0708C8.84369 36.7608 8.64869 37.5558 8.64869 38.4558C8.64869 39.3258 8.84369 40.1058 9.23369 40.7958C9.65369 41.4858 10.1937 42.0408 10.8537 42.4608C11.5437 42.8508 12.3087 43.0458 13.1487 43.0458C13.6587 43.0458 14.0937 42.9858 14.4537 42.8658C14.8437 42.7458 15.1737 42.6108 15.4437 42.4608C15.7137 42.2808 15.9237 42.1458 16.0737 42.0558C16.4337 41.8158 16.7787 41.6058 17.1087 41.4258C17.4387 41.2158 17.7837 41.1108 18.1437 41.1108C18.5637 41.1108 18.9987 41.2758 19.4487 41.6058C19.8987 41.9058 20.3937 42.4008 20.9337 43.0908C21.4137 43.7208 21.6837 44.3058 21.7437 44.8458C21.8337 45.3858 21.7137 45.8958 21.3837 46.3758C21.0537 46.8558 20.5437 47.3208 19.8537 47.7708C19.6137 47.9808 19.1787 48.2508 18.5487 48.5808C17.9487 48.9108 17.1987 49.2108 16.2987 49.4808C15.4287 49.7508 14.4387 49.8858 13.3287 49.8858ZM43.7434 49.6608C42.6334 49.6608 41.8084 49.4658 41.2684 49.0758C40.7584 48.6858 40.5034 48.2058 40.5034 47.6358L40.9534 46.8708C40.7734 47.1708 40.4284 47.5458 39.9184 47.9958C39.4084 48.4158 38.7484 48.8058 37.9384 49.1658C37.1284 49.4958 36.1234 49.6608 34.9234 49.6608C33.5434 49.6608 32.2234 49.3608 30.9634 48.7608C29.7334 48.1608 28.6384 47.3358 27.6784 46.2858C26.7184 45.2058 25.9534 43.9908 25.3834 42.6408C24.8434 41.2908 24.5734 39.8658 24.5734 38.3658C24.5734 36.8958 24.8434 35.5008 25.3834 34.1808C25.9534 32.8308 26.7184 31.6458 27.6784 30.6258C28.6684 29.5758 29.7784 28.7508 31.0084 28.1508C32.2384 27.5508 33.5434 27.2508 34.9234 27.2508C36.0334 27.2508 36.9784 27.4158 37.7584 27.7458C38.5384 28.0458 39.1834 28.4058 39.6934 28.8258C40.2334 29.2458 40.6384 29.6508 40.9084 30.0408L40.5484 29.4108C40.5184 28.6908 40.7584 28.1508 41.2684 27.7908C41.8084 27.4008 42.6484 27.2058 43.7884 27.2058C44.8684 27.2058 45.6334 27.3708 46.0834 27.7008C46.5634 28.0308 46.8484 28.4658 46.9384 29.0058C47.0584 29.5458 47.1184 30.1158 47.1184 30.7158V46.2408C47.1184 46.8108 47.0584 47.3658 46.9384 47.9058C46.8484 48.4458 46.5634 48.8808 46.0834 49.2108C45.6334 49.5108 44.8534 49.6608 43.7434 49.6608ZM35.9134 42.9558C36.6934 42.9558 37.3984 42.7608 38.0284 42.3708C38.6884 41.9508 39.1984 41.3958 39.5584 40.7058C39.9484 40.0158 40.1434 39.2508 40.1434 38.4108C40.1434 37.5408 39.9484 36.7758 39.5584 36.1158C39.1684 35.4258 38.6434 34.8858 37.9834 34.4958C37.3234 34.0758 36.6034 33.8658 35.8234 33.8658C34.9534 33.8658 34.1734 34.0758 33.4834 34.4958C32.8234 34.9158 32.2834 35.4708 31.8634 36.1608C31.4734 36.8508 31.2784 37.6308 31.2784 38.5008C31.2784 39.3108 31.4734 40.0608 31.8634 40.7508C32.2834 41.4108 32.8384 41.9508 33.5284 42.3708C34.2484 42.7608 35.0434 42.9558 35.9134 42.9558ZM54.5649 49.6608C53.4549 49.6608 52.6599 49.5108 52.1799 49.2108C51.7299 48.8808 51.4449 48.4608 51.3249 47.9508C51.2349 47.4108 51.1899 46.8558 51.1899 46.2858V30.4458C51.1899 29.8758 51.2499 29.3508 51.3699 28.8708C51.4899 28.3608 51.7749 27.9558 52.2249 27.6558C52.7049 27.3558 53.4999 27.2058 54.6099 27.2058C55.5699 27.2058 56.2749 27.3408 56.7249 27.6108C57.1749 27.8508 57.4599 28.1508 57.5799 28.5108C57.7299 28.8708 57.8049 29.2158 57.8049 29.5458C57.8049 29.8458 57.8349 30.0558 57.8949 30.1758L57.6249 31.0308C57.6849 30.5808 57.9099 30.1308 58.2999 29.6808C58.7199 29.2008 59.2299 28.7808 59.8299 28.4208C60.4599 28.0308 61.1199 27.7308 61.8099 27.5208C62.5299 27.3108 63.2349 27.2058 63.9249 27.2058C65.3649 27.2058 66.6399 27.4758 67.7499 28.0158C68.8899 28.5258 69.8499 29.2758 70.6299 30.2658C71.4099 31.2558 71.9949 32.4258 72.3849 33.7758C72.8049 35.0958 73.0149 36.5508 73.0149 38.1408V46.3308C73.0149 46.9008 72.9549 47.4558 72.8349 47.9958C72.7449 48.5058 72.4599 48.9108 71.9799 49.2108C71.5299 49.5108 70.7499 49.6608 69.6399 49.6608C68.4999 49.6608 67.6899 49.5108 67.2099 49.2108C66.7599 48.8808 66.4749 48.4608 66.3549 47.9508C66.2349 47.4108 66.1749 46.8558 66.1749 46.2858V38.1408C66.1749 37.2408 66.0249 36.4758 65.7249 35.8458C65.4249 35.2158 64.9749 34.7358 64.3749 34.4058C63.7749 34.0458 63.0399 33.8658 62.1699 33.8658C61.2999 33.8658 60.5499 34.0458 59.9199 34.4058C59.2899 34.7658 58.7949 35.2608 58.4349 35.8908C58.1049 36.5208 57.9399 37.2708 57.9399 38.1408V46.3308C57.9399 46.9008 57.8799 47.4558 57.7599 47.9958C57.6699 48.5058 57.3849 48.9108 56.9049 49.2108C56.4549 49.5108 55.6749 49.6608 54.5649 49.6608Z" fill="white"/>
</g>
</g>
<defs>
<filter id="filter0_d_580_18851" x="73.8875" y="0.000781059" width="82.5922" height="69.35" filterUnits="userSpaceOnUse" color-interpolation-filters="sRGB">
<feFlood flood-opacity="0" result="BackgroundImageFix"/>
<feColorMatrix in="SourceAlpha" type="matrix" values="0 0 0 0 0 0 0 0 0 0 0 0 0 0 0 0 0 0 127 0" result="hardAlpha"/>
<feOffset dy="4"/>
<feGaussianBlur stdDeviation="3.65"/>
<feComposite in2="hardAlpha" operator="out"/>
<feColorMatrix type="matrix" values="0 0 0 0 0.872915 0 0 0 0 0.304989 0 0 0 0 0.0170819 0 0 0 1 0"/>
<feBlend mode="normal" in2="BackgroundImageFix" result="effect1_dropShadow_580_18851"/>
<feBlend mode="normal" in="SourceGraphic" in2="effect1_dropShadow_580_18851" result="shape"/>
</filter>
<clipPath id="clip0_580_18851">
<rect width="75.07" height="25.81" fill="white" transform="translate(0 26.3008)"/>
</clipPath>
<clipPath id="clip1_580_18851">
<rect width="75.07" height="25.81" fill="white" transform="translate(0 25.3008)"/>
</clipPath>
</defs>
</svg>
